<?xml version="1.0" encoding="utf-8"?>
<!-- Generator: Adobe Illustrator 19.0.0, SVG Export Plug-In . SVG Version: 6.00 Build 0)  -->
<svg version="1.1" id="Layer_1" xmlns="http://www.w3.org/2000/svg" xmlns:xlink="http://www.w3.org/1999/xlink" x="0px" y="0px"
	 viewBox="0 0 1200 1200" style="enable-background:new 0 0 1200 1200;" xml:space="preserve">
<style type="text/css">
	.st0{fill:none;stroke:#85BEFF;stroke-width:3;stroke-miterlimit:10;}
</style>
<g>
	<path class="st0" d="M846,708.3l0.4,0L599.3,130.9L354.5,706.1l0.3,0c-12.3,30.5-19.1,63.8-19.1,98.7
		c0,146,118.3,264.3,264.3,264.3c146,0,264.3-118.3,264.3-264.3C864.3,770.7,857.8,738.2,846,708.3z"/>
	<path class="st0" d="M600,1012.1c-114.3,0-207.3-93-207.3-207.3c0-26.7,5-52.7,15-77.4l6-14.9l185.7-436.3l189.8,443.6l3.7,9.4
		c9.5,24.2,14.3,49.6,14.3,75.7C807.3,919.1,714.3,1012.1,600,1012.1z"/>
	<path class="st0" d="M600,955.1c-82.8,0-150.2-67.4-150.2-150.2c0-19.3,3.7-38.2,10.9-56.1l6-14.9l133-312.4l136.9,319.8l3.3,8.5
		c7,17.8,10.5,36.2,10.5,55C750.2,887.7,682.8,955.1,600,955.1z"/>
</g>
</svg>
