<?xml version="1.0" encoding="utf-8"?>
<!-- Generator: Adobe Illustrator 19.0.0, SVG Export Plug-In . SVG Version: 6.00 Build 0)  -->
<svg version="1.1" id="Layer_1" xmlns="http://www.w3.org/2000/svg" xmlns:xlink="http://www.w3.org/1999/xlink" x="0px" y="0px"
	 viewBox="0 0 1200 1200" style="enable-background:new 0 0 1200 1200;" xml:space="preserve">
<style type="text/css">
	.st0{fill:none;stroke:#ff9500;stroke-width:3;stroke-miterlimit:10;}
	.st1{fill:none;stroke:#ff9500;stroke-width:3;stroke-linecap:round;stroke-miterlimit:10;}
	.st2{fill:#ff9500;}
</style>
<g filter="url(#water)">
	<path class="st0" d="M862.1,715.4L599.3,100.3L338.5,713c0,0-20,68-20,105.2c0,155.5,126,281.5,281.5,281.5
		c155.5,0,281.5-126,281.5-281.5C881.5,781.9,874.6,747.2,862.1,715.4z"/>
	<path class="st0" d="M600,1038.9c-121.7,0-220.8-99-220.8-220.8c0-28.4,5.4-56.1,16-82.4l6.4-15.9L599.4,255l202.2,472.5l3.9,10
		c10.1,25.8,15.2,52.9,15.2,80.6C820.8,939.9,721.7,1038.9,600,1038.9z"/>
	<path class="st1" d="M599.6,409.8l145.8,340.7l3.5,9.1c7.4,18.9,11.2,38.6,11.2,58.6c0,88.2-71.8,160-160,160
		c-88.2,0-160-71.8-160-160c0-20.6,3.9-40.7,11.6-59.7l6.4-15.9"/>
	<circle class="st2" cx="490.2" cy="676.4" r="23.3"/>
</g>
</svg>
