<?xml version="1.0" encoding="utf-8"?>
<!-- Generator: Adobe Illustrator 19.0.0, SVG Export Plug-In . SVG Version: 6.00 Build 0)  -->
<svg version="1.1" id="Layer_1" xmlns="http://www.w3.org/2000/svg" xmlns:xlink="http://www.w3.org/1999/xlink" x="0px" y="0px"
	 viewBox="0 0 1200 1200" style="enable-background:new 0 0 1200 1200;" xml:space="preserve">
<style type="text/css">
	.st0{fill:url(#SVGID_1_);}
	.st1{fill:url(#SVGID_2_);}
	.st2{fill:url(#SVGID_3_);}
	.st3{fill:url(#SVGID_4_);}
	.st4{fill:url(#SVGID_5_);}
	.st5{fill:url(#SVGID_6_);}
</style>
<g filter="url(#water)">
	<linearGradient id="SVGID_1_" gradientUnits="userSpaceOnUse" x1="610.564" y1="728.7153" x2="754.7567" y2="-181.6811">
		<stop  offset="0" style="stop-color:#00A2DF"/>
		<stop  offset="1" style="stop-color:#32689A"/>
	</linearGradient>
	<path class="st0" d="M557.2,102.5c-11.2,17.9-5.7,41.6,12.3,52.7c18,11.2,41.6,5.7,52.7-12.3l10.3-16.5
		c11.2-17.9,5.7-41.6-12.3-52.7C602.3,62.5,578.7,68,567.5,86L557.2,102.5L557.2,102.5z M697.7,629.4c6.4,20.2,27.9,31.4,48.1,25
		c20.2-6.4,31.4-27.9,25-48.1l-6-18.9c-6.4-20.2-27.9-31.4-48.1-25c-20.2,6.4-31.4,27.9-25,48.1L697.7,629.4L697.7,629.4z
		 M657.6,525.4c8.6,19.3,31.2,27.9,50.5,19.3c19.3-8.6,27.9-31.2,19.3-50.5l-8.5-18.9c-8.6-19.3-31.2-27.9-50.5-19.3
		c-19.3,8.6-27.9,31.2-19.3,50.5L657.6,525.4L657.6,525.4z M566,235.1l-75,122.4c-43.7,71.5-86.1,148.9-117.4,225.2
		c-30.5,74.4-50.5,147.7-50.8,212.7c-0.6,124.2,69.9,203.8,160.4,238.9c36.5,14.1,76.5,21.2,116.7,21.2c40.3,0,80.3-7.1,116.7-21.2
		c90.5-35,161-114.6,160.4-238.9c-0.3-65.1-20.3-138.3-50.8-212.7c-31.3-76.3-73.6-153.7-117.4-225.2L680,310.2l-23.5,38.4
		c-15.2,24.9-30.7,48.9-46.2,73.2c-38.9,60.6-78.9,122.9-106.4,182.6c-21.3,46.2-35.2,90.9-35.4,132c-0.2,51.8,13.7,89.3,34.9,115.1
		c25.1,30.5,61.3,45.4,95.9,48.3c34.1,2.8,66.4-5.9,91.3-22.8c23.1-15.7,39.7-38.5,44.4-65.3c3.6-20.8,23.5-34.8,44.3-31.2
		c20.8,3.6,34.8,23.5,31.2,44.3c-8.5,48-37.2,88.2-77,115.3c-39,26.4-88.8,40.2-140.2,36c-53.1-4.4-109.2-27.8-149-76.1
		c-31.7-38.5-52.6-92.3-52.3-163.9c0.5-116.8,78.9-239,153.7-355.6c15.8-24.6,31.5-49,45.3-71.7l54.7-89.4c3.1-6,7.8-11.3,14-15.1
		c18.1-11.1,41.7-5.4,52.7,12.7l0,0.1l61.6,100.6c45.4,74.2,89.6,155.1,122.7,236c33.9,82.7,56.1,165.5,56.5,241.5
		c0.7,161.3-91.2,264.8-209.3,310.4c-45.7,17.7-95.2,26.5-144.3,26.5c-49.1,0-98.5-8.9-144.3-26.5
		c-118.1-45.7-210-149.2-209.3-310.4c0.4-76,22.6-158.8,56.5-241.5c33.1-80.8,77.3-161.7,122.7-236l75-122.4
		c11-18,34.5-23.7,52.6-12.7C571.3,193.5,577,217,566,235.1L566,235.1z M730.9,734.5c4.4,20.7,24.7,33.9,45.4,29.5
		c20.7-4.4,33.9-24.7,29.5-45.4l-3.5-16.4c-4.4-20.7-24.7-33.9-45.4-29.5c-20.7,4.4-33.9,24.7-29.5,45.4L730.9,734.5z"/>
	<linearGradient id="SVGID_2_" gradientUnits="userSpaceOnUse" x1="753.8057" y1="778.6995" x2="780.7617" y2="651.8815">
		<stop  offset="0" style="stop-color:#191638"/>
		<stop  offset="0.47" style="stop-color:#0095DA"/>
		<stop  offset="1" style="stop-color:#FFFFFF"/>
	</linearGradient>
	<path class="st1" d="M730.9,734.5c4.4,20.7,24.7,33.9,45.4,29.5c20.7-4.4,33.9-24.7,29.5-45.4l-3.5-16.4
		c-4.4-20.7-24.7-33.9-45.4-29.5c-20.7,4.4-33.9,24.7-29.5,45.4L730.9,734.5z"/>
	<linearGradient id="SVGID_3_" gradientUnits="userSpaceOnUse" x1="678.5435" y1="579.6114" x2="698.7603" y2="414.9594">
		<stop  offset="0" style="stop-color:#191638"/>
		<stop  offset="0.5" style="stop-color:#0095DA"/>
		<stop  offset="1" style="stop-color:#FFFFFF"/>
	</linearGradient>
	<path class="st2" d="M657.6,525.4c8.6,19.3,31.2,27.9,50.5,19.3c19.3-8.6,27.9-31.2,19.3-50.5l-8.5-18.9
		c-8.6-19.3-31.2-27.9-50.5-19.3c-19.3,8.6-27.9,31.2-19.3,50.5L657.6,525.4z"/>
	<linearGradient id="SVGID_4_" gradientUnits="userSpaceOnUse" x1="712.2933" y1="684.4203" x2="745.267" y2="552.1703">
		<stop  offset="0" style="stop-color:#191638"/>
		<stop  offset="0.47" style="stop-color:#0095DA"/>
		<stop  offset="1" style="stop-color:#FFFFFF"/>
	</linearGradient>
	<path class="st3" d="M697.7,629.4c6.4,20.2,27.9,31.4,48.1,25c20.2-6.4,31.4-27.9,25-48.1l-6-18.9c-6.4-20.2-27.9-31.4-48.1-25
		c-20.2,6.4-31.4,27.9-25,48.1L697.7,629.4z"/>
	<linearGradient id="SVGID_5_" gradientUnits="userSpaceOnUse" x1="245.7294" y1="2623.04" x2="982.3464" y2="-842.4705">
		<stop  offset="0" style="stop-color:#191638"/>
		<stop  offset="0.47" style="stop-color:#0095DA"/>
		<stop  offset="1" style="stop-color:#FFFFFF"/>
	</linearGradient>
	<path class="st4" d="M471.9,700.4c-7.3,28.4-10.7,63.3-5.2,104.6c5,37.1,17.5,70.6,41,96.1c57.4,62.5,179.2,82.1,245.5,23.8
		c29.6-26,50.4-60.4,57.5-100.1c3.6-20.8-10.3-40.7-31.2-44.3c-20.8-3.6-40.7,10.3-44.3,31.2c-4.7,26.8-21.3,49.6-44.4,65.3
		c-24.9,16.9-57.3,25.6-91.3,22.8c-34.6-2.8-70.8-17.7-95.9-48.3c-21.2-25.8-35.1-63.3-34.9-115.1
		C468.6,724.6,469.7,712.6,471.9,700.4z"/>
	<linearGradient id="SVGID_6_" gradientUnits="userSpaceOnUse" x1="-4123.5317" y1="10775.7998" x2="5600.1309" y2="-10076.6611">
		<stop  offset="0" style="stop-color:#191638"/>
		<stop  offset="0.47" style="stop-color:#0095DA"/>
		<stop  offset="1" style="stop-color:#FFFFFF"/>
	</linearGradient>
	<path class="st5" d="M557.2,102.5c-11.2,18-5.7,41.6,12.3,52.7c18,11.2,41.6,5.7,52.7-12.3l10.3-16.5c11.2-17.9,5.7-41.6-12.3-52.7
		c-18-11.2-41.6-5.7-52.7,12.3L557.2,102.5L557.2,102.5z M775.2,1003.1c-18,12.7-37.7,23.1-58.5,31.1
		c-36.5,14.1-76.5,21.2-116.7,21.2c-40.3,0-80.3-7.1-116.7-21.2c-90.5-35-161-114.6-160.4-238.8c0.3-65.1,20.3-138.3,50.8-212.7
		c31.3-76.3,73.6-153.7,117.4-225.2l75-122.4c11-18,5.3-41.6-12.7-52.6c-18-11-41.6-5.3-52.6,12.7l-75,122.4
		c-45.4,74.2-89.6,155.1-122.7,236c-33.9,82.7-56.2,165.5-56.5,241.5c-0.4,75.9,19.8,139,53.6,189.3
		C392.4,1121.9,659.3,1112.2,775.2,1003.1z"/>
</g>
</svg>
