<?xml version="1.0" encoding="utf-8"?>
<!-- Generator: Adobe Illustrator 19.0.0, SVG Export Plug-In . SVG Version: 6.00 Build 0)  -->
<svg version="1.1" id="Layer_1" xmlns="http://www.w3.org/2000/svg" xmlns:xlink="http://www.w3.org/1999/xlink" x="0px" y="0px"
	 viewBox="0 0 1200 1200" style="enable-background:new 0 0 1200 1200;" xml:space="preserve">
<style type="text/css">
	.st0{fill-rule:evenodd;clip-rule:evenodd;fill:url(#SVGID_1_);}
	.st1{fill-rule:evenodd;clip-rule:evenodd;fill:url(#SVGID_2_);}
	.st2{fill-rule:evenodd;clip-rule:evenodd;fill:url(#SVGID_3_);}
	.st3{fill-rule:evenodd;clip-rule:evenodd;fill:url(#SVGID_4_);}
	.st4{fill-rule:evenodd;clip-rule:evenodd;fill:url(#SVGID_5_);}
</style>
<g filter="url(#water)">
	<radialGradient id="SVGID_1_" cx="379.6622" cy="758.8286" r="173.2604" gradientUnits="userSpaceOnUse">
		<stop  offset="0" style="stop-color:#CAE1F5"/>
		<stop  offset="1" style="stop-color:#0077BE"/>
	</radialGradient>
	<path class="st0" d="M896.6,663.7c30,86.3,23.8,184.6-25.5,269.9c-89.9,155.7-289,209-444.7,119.2
		c-104.1-60.1-154.2-165.1-138.3-264.3C316.1,613.8,517,514,666,646.7c-65.9-29.9-145.1-5.4-182,58.6
		c-39.3,68.1-16,155.3,52.1,194.6c43.5,25.1,94.8,24.7,136.4,3.3c39.2-20.1,67-53.7,83.1-93.4c41.6-102,4.5-176-35.6-263.8
		c-67-146.7-115.1-263.5-117.6-442.4c37.9,151.1,134.7,274.9,210.1,394.8C844.8,549.6,876.6,606.3,896.6,663.7z"/>
	<radialGradient id="SVGID_2_" cx="696.1435" cy="895.039" r="163.2694" gradientUnits="userSpaceOnUse">
		<stop  offset="0" style="stop-color:#293C65"/>
		<stop  offset="1" style="stop-color:#00AEEF"/>
	</radialGradient>
	<path class="st1" d="M896.6,663.7c17.5,50.4,22.7,104.8,14.1,158.4c7.3-46.1,4.5-92.9-7.5-137.1c18.4,156.1-144,303.5-298.5,234.1
		c23.6,0.4,46.9-5,67.9-15.8c39.2-20.1,67-53.7,83.1-93.4c41.6-102,4.5-176-35.6-263.8c-67-146.7-115.1-263.5-117.6-442.4
		c37.9,151.1,134.7,274.9,210.1,394.8C844.8,549.6,876.6,606.3,896.6,663.7z"/>
	<radialGradient id="SVGID_3_" cx="343.9959" cy="738.7906" r="495.5614" gradientUnits="userSpaceOnUse">
		<stop  offset="0" style="stop-color:#CAE1F5"/>
		<stop  offset="1" style="stop-color:#0077BE"/>
	</radialGradient>
	<path class="st2" d="M705,1075c-88.3,33.5-190.4,28.6-278.6-22.3c-104.1-60.1-154.2-165.1-138.3-264.3
		C316.1,613.8,517,514,666,646.7c-45.3-20.5-96.8-15.4-136.6,10.5c-54.1,29.4-95.8,90.3-108.5,147.4c-14.7,66,9.8,129.4,54.1,186.3
		C523.5,1053.3,604.7,1092.6,705,1075z"/>
	<radialGradient id="SVGID_4_" cx="416.6592" cy="792.2972" r="412.8051" gradientUnits="userSpaceOnUse">
		<stop  offset="0" style="stop-color:#293C65"/>
		<stop  offset="1" style="stop-color:#00AEEF"/>
	</radialGradient>
	<path class="st3" d="M903.2,685c22.1,80.9,13.2,170.2-32.1,248.6c-39,67.5-98.5,115.8-166.1,141.5c-100.3,17.6-181.4-21.7-229.9-84
		c-44.3-56.9-68.8-120.3-54.1-186.3c12.7-57.1,54.3-118,108.5-147.4c-18.2,11.8-33.9,28-45.4,48.1c-39.3,68.1-16,155.3,52.1,194.6
		c21.6,12.5,45.2,18.7,68.6,19.1C759.1,988.5,921.6,841.1,903.2,685z"/>
	<radialGradient id="SVGID_5_" cx="375.8094" cy="491.8569" r="216.5937" gradientUnits="userSpaceOnUse">
		<stop  offset="0" style="stop-color:#CAE1F5"/>
		<stop  offset="1" style="stop-color:#0077BE"/>
	</radialGradient>
	<path class="st4" d="M602.4,103.7C550.9,309.5,390,464.5,322.6,628.3c30.7-32.3,69.1-57.4,113-71.7c16.5-5.4,33-8.9,49.4-10.9
		C551.9,399.2,599.9,282.4,602.4,103.7z"/>
</g>
</svg>
