<?xml version="1.0" encoding="utf-8"?>
<!-- Generator: Adobe Illustrator 19.0.0, SVG Export Plug-In . SVG Version: 6.00 Build 0)  -->
<svg version="1.1" id="Layer_1" xmlns="http://www.w3.org/2000/svg" xmlns:xlink="http://www.w3.org/1999/xlink" x="0px" y="0px"
	 viewBox="0 0 1200 1200" style="enable-background:new 0 0 1200 1200;" xml:space="preserve">
<style type="text/css">
	.st0{fill:url(#SVGID_1_);}
	.st1{fill:url(#SVGID_2_);}
	.st2{fill-rule:evenodd;clip-rule:evenodd;fill:#FF6600;}
</style>
<g filter="url(#water)">
	<linearGradient id="SVGID_1_" gradientUnits="userSpaceOnUse" x1="176.1866" y1="461.0895" x2="969.2251" y2="814.173">
		<stop  offset="0" style="stop-color:#000000"/>
		<stop  offset="0.33" style="stop-color:#0095DA"/>
		<stop  offset="1" style="stop-color:#FFFFFF"/>
	</linearGradient>
	<path class="st0" d="M587.8,1079.7c-61.6-3.6-124.2-26.1-175.8-60.5c-41.2-27.5-76.2-62.8-99.2-102.6
		c-42-45.1-70.8-112.6-69.6-204.6c2.1-155.1,104.7-280.6,214.9-415.2c11.5-14.1,23.2-28.3,39.2-48.2l33-41l36.6,41
		c11.3,12.7,21.2,23.4,32.3,35.4c8.8,9.5,18.2,19.7,28,30.5c13.5-15.7,27.3-30.7,41.1-44.6l33.4-33.7l33.2,37.1
		c48.3,54,93.8,111.4,130.6,169.9c38,60.4,66.8,121.6,80.1,181.3C1000.6,871.9,851.2,1095.1,587.8,1079.7L587.8,1079.7z
		 M342.1,657.6c15.9-22.2,33.4-43.4,50.2-63.9c4.8-5.8,9.5-11.7,18.8-23.2l33-41l32.5,36.4c10-35.5,28.2-74.9,51.6-114.6
		c12.9-21.8,27.4-44.1,43.1-65.9c-12.1-13.4-23.8-26.1-34.5-37.7l-7.1,8.7C445.6,459.1,366.5,555.9,342.1,657.6L342.1,657.6z
		 M689.5,385c66.6,78.3,131.2,167.5,138.1,233.6l0,0.2c8.6,83.4-32.7,138.4-90.6,164.9c-25.1,11.5-53.1,17.2-81,17.2
		c-9,0-18.1-0.6-27.1-1.8c0.5,3.3,0.9,6.6,1.3,9.9c8.1,78.2-28.8,132.7-83.4,159.4c-6.4,3.1-13,5.8-19.8,8.1
		c20.3,6.7,41.2,11,61.8,12.2C793,1000.6,898.5,830,856.2,640.2c-10.8-48.6-35-99.8-67.3-151c-25-39.7-55-79.5-87.5-118.2
		C697.4,375.6,693.4,380.2,689.5,385L689.5,385z M606.9,700.4c13.7,6,29.3,9,45,9c15.8,0,31.1-3,44.2-9
		c26.1-11.9,44.7-37.4,40.7-76.5h0c-4.2-40-50.1-104.1-102.2-166.3c-9.6,14.2-18.7,28.5-27.1,42.6
		C576.1,553.5,518.5,661.7,606.9,700.4L606.9,700.4z M539.4,814c-4.9-47-44-94.1-89-144.1c-23.3,28.8-48.7,60.4-63.9,94.4
		c-7.4,16.5-11.9,33-12.1,49.8c-0.2,13,2.3,26,7,38.6c1.3,3.6,2.8,7.1,4.5,10.6c7.6,7,15.7,12.8,24.2,17.4
		c16.1,8.8,33.2,13.4,49.6,14.1c16.1,0.7,31.4-2.2,44.2-8.5C527.3,874.8,543.1,850.2,539.4,814z"/>
	<linearGradient id="SVGID_2_" gradientUnits="userSpaceOnUse" x1="-8753.6309" y1="-9273.3857" x2="28588.7793" y2="30771.4473">
		<stop  offset="0" style="stop-color:#000000"/>
		<stop  offset="0.33" style="stop-color:#191638"/>
		<stop  offset="1" style="stop-color:#32689A"/>
	</linearGradient>
	<path class="st1" d="M652.3,479.2c-5.8-7.2-11.7-14.4-17.8-21.6c14.7-21.7,30.8-43.2,47.5-63.6L652.3,479.2L652.3,479.2z
		 M342.1,657.6c4.7-6.5,9.5-12.9,14.4-19.3c-15.6,59.4-2.8,112.6,21,151.8c-1.9,7.9-3,15.8-3.1,23.8c-0.2,13,2.3,26,7,38.6
		c1.3,3.6,2.8,7.1,4.5,10.6C331.9,813.4,326.4,723.2,342.1,657.6L342.1,657.6z M526.9,976.5c17.5,5.8,35.4,9.7,53.2,11.5
		c-4.1,2.5-8.4,4.8-12.8,7c-26.1,12.8-56.2,18.7-87,17.4c-30.4-1.3-61.8-9.7-90.8-25.5c-26.9-14.7-52-35.7-72.5-63.3
		c-1.4-2.3-2.8-4.6-4.2-7c16.9,18.2,36,32.7,56.2,43.7c29,15.8,60.3,24.2,90.8,25.5C483,986.8,505.8,983.7,526.9,976.5L526.9,976.5z
		 M628.9,799c0.5,3.3,0.9,6.6,1.3,9.9c0.6,6.2,1,12.3,1.1,18.2c-49.4-8.1-93-43.6-120.9-88.5c17.4,19.5,39.2,34.5,63.1,45
		C591.2,791.4,610,796.5,628.9,799L628.9,799z M465.1,553.1l11.4,12.8c-8.7,30.9-11.3,59.6-5.4,91.9
		C456.4,624.1,461.7,575,465.1,553.1L465.1,553.1z M615.7,302.1c3.7,4,7.5,8.2,11.3,12.4c-12.5,14.5-24.8,29.7-36.7,45.2
		L615.7,302.1z"/>
	<polygon class="st2" points="542.8,192.1 599.8,119.5 680.9,214.8 621.8,280.2 	"/>
</g>
</svg>
