<?xml version="1.0" encoding="utf-8"?>
<!-- Generator: Adobe Illustrator 19.0.0, SVG Export Plug-In . SVG Version: 6.00 Build 0)  -->
<svg version="1.1" id="Layer_1" xmlns="http://www.w3.org/2000/svg" xmlns:xlink="http://www.w3.org/1999/xlink" x="0px" y="0px"
	 viewBox="0 0 1200 1200" style="enable-background:new 0 0 1200 1200;" xml:space="preserve">
<style type="text/css">
	.st0{fill-rule:evenodd;clip-rule:evenodd;fill:url(#SVGID_1_);}
	.st1{fill-rule:evenodd;clip-rule:evenodd;fill:#3DC7F4;}
	.st2{fill-rule:evenodd;clip-rule:evenodd;fill:url(#SVGID_2_);}
	.st3{fill-rule:evenodd;clip-rule:evenodd;fill:url(#SVGID_3_);}
</style>
<g filter="url(#water)">
	<radialGradient id="SVGID_1_" cx="212.812" cy="844.8158" r="190.9948" gradientUnits="userSpaceOnUse">
		<stop  offset="0" style="stop-color:#00AEEF"/>
		<stop  offset="1" style="stop-color:#264285"/>
	</radialGradient>
	<path class="st0" d="M522.8,491c-58.7-99.7-122.2-203.9-139.5-313.1c-34.4,216.7-250.7,413.7-250.7,595.5
		c0,329.9,495.8,331.6,501.2,5.3c-18.5-7-35.8-15.8-52.5-26.4c-29.1,234-397.9,224-397.9-30.1c0-145,172.5-302,199.9-474.9
		c12.6,79.3,55.7,155.2,98.6,228.3C495.6,480,509.2,485.2,522.8,491z"/>
	<path class="st1" d="M217.2,729.8c4.6,54.3,70.9,56.5,53.1-9c-6.8-25-11.1-65.5-4-102.9c12.2-64.2,61.8-118.6,131.5-108.3
		c104.8,15.4,221.1,169.7,353.1,227.8c125.1,55.1,291.1-0.6,316.5-126.2C846.2,773.5,637,546.8,462.7,496.9
		c-115.9-33.2-176.6,16-219.3,118.2C226.2,656.2,214.9,702.3,217.2,729.8L217.2,729.8z M286.3,780.8c15.9,0,28.7,12.9,28.7,28.7
		c0,15.9-12.9,28.7-28.7,28.7c-15.9,0-28.7-12.9-28.7-28.7C257.5,793.7,270.4,780.8,286.3,780.8z"/>
	<radialGradient id="SVGID_2_" cx="377.6363" cy="718.6146" r="148.7021" gradientUnits="userSpaceOnUse">
		<stop  offset="0" style="stop-color:#00AEEF"/>
		<stop  offset="1" style="stop-color:#264285"/>
	</radialGradient>
	<path class="st2" d="M745,770.7C636,711.3,576.1,648,529.9,603.3c-27.4-26.6-72.6-67.8-124.2-78.4c-39.9-8.2-89.2,4.9-103.3,43.4
		c74.5-62.4,157.8,40.7,204.5,87.6C559.2,708.5,624.8,772.5,745,770.7z"/>
	<path class="st1" d="M538.4,349.3c-11.2,0-20.3,9.1-20.3,20.3c0,11.2,9.1,20.3,20.3,20.3c11.2,0,20.3-9.1,20.3-20.3
		C558.7,358.3,549.6,349.3,538.4,349.3L538.4,349.3z M863,576.6c-11.2,0-20.3,9.1-20.3,20.3c0,11.2,9.1,20.3,20.3,20.3
		c11.2,0,20.3-9.1,20.3-20.3C883.3,585.7,874.2,576.6,863,576.6L863,576.6z M591.2,458.6c-11.2,0-20.3,9.1-20.3,20.3
		s9.1,20.3,20.3,20.3c11.2,0,20.3-9.1,20.3-20.3S602.3,458.6,591.2,458.6L591.2,458.6z M710.9,346.2c-11.2,0-20.3,9.1-20.3,20.3
		c0,11.2,9.1,20.3,20.3,20.3c11.2,0,20.3-9.1,20.3-20.3C731.2,355.3,722.1,346.2,710.9,346.2z"/>
	<radialGradient id="SVGID_3_" cx="539.5253" cy="796.4172" r="159.2118" gradientUnits="userSpaceOnUse">
		<stop  offset="0" style="stop-color:#00AEEF"/>
		<stop  offset="1" style="stop-color:#264285"/>
	</radialGradient>
	<path class="st3" d="M734.5,882.1c-15.5,0-28.1,12.6-28.1,28.1c0,15.5,12.6,28.1,28.1,28.1c15.5,0,28.1-12.6,28.1-28.1
		C762.5,894.7,750,882.1,734.5,882.1L734.5,882.1z M735.5,424.3c-20.9,0-37.8,16.9-37.8,37.8c0,20.9,16.9,37.8,37.8,37.8
		c20.9,0,37.8-16.9,37.8-37.8C773.3,441.2,756.4,424.3,735.5,424.3L735.5,424.3z M495.9,262.9c-15.4,0-27.8,12.5-27.8,27.8
		c0,15.4,12.5,27.8,27.8,27.8c15.4,0,27.8-12.5,27.8-27.8C523.7,275.3,511.2,262.9,495.9,262.9L495.9,262.9z M868.4,801.9
		c-11.2,0-20.3,9.1-20.3,20.3c0,11.2,9.1,20.3,20.3,20.3c11.2,0,20.3-9.1,20.3-20.3C888.7,810.9,879.6,801.9,868.4,801.9z"/>
	<path class="st1" d="M800.9,455.6c-5.1,0-9.2,4.1-9.2,9.2c0,5.1,4.1,9.2,9.2,9.2c5.1,0,9.2-4.1,9.2-9.2
		C810.2,459.7,806,455.6,800.9,455.6L800.9,455.6z M832.3,768.9c-5.1,0-9.2,4.1-9.2,9.2c0,5.1,4.1,9.2,9.2,9.2
		c5.1,0,9.2-4.1,9.2-9.2C841.5,773,837.4,768.9,832.3,768.9L832.3,768.9z M812,904.5c-5.1,0-9.2,4.1-9.2,9.2c0,5.1,4.1,9.2,9.2,9.2
		c5.1,0,9.2-4.1,9.2-9.2C821.2,908.7,817.1,904.5,812,904.5L812,904.5z M644.3,898c-5.1,0-9.2,4.1-9.2,9.2c0,5.1,4.1,9.2,9.2,9.2
		c5.1,0,9.2-4.1,9.2-9.2C653.5,902.1,649.4,898,644.3,898L644.3,898z M884.1,704.4c-5.1,0-9.2,4.1-9.2,9.2c0,5.1,4.1,9.2,9.2,9.2
		c5.1,0,9.2-4.1,9.2-9.2C893.4,708.5,889.2,704.4,884.1,704.4L884.1,704.4z M823.3,678.6c-11.2,0-20.3,9.1-20.3,20.3
		c0,11.2,9.1,20.3,20.3,20.3c11.2,0,20.3-9.1,20.3-20.3C843.6,687.7,834.5,678.6,823.3,678.6L823.3,678.6z M744.5,791.5
		c-17.8,0-32.3,14.4-32.3,32.3c0,17.8,14.4,32.3,32.3,32.3c17.8,0,32.3-14.4,32.3-32.3C776.7,806,762.3,791.5,744.5,791.5
		L744.5,791.5z M805.5,503.5c-9.7,0-17.5,7.8-17.5,17.5c0,9.7,7.8,17.5,17.5,17.5c9.7,0,17.5-7.8,17.5-17.5
		C823.1,511.3,815.2,503.5,805.5,503.5L805.5,503.5z M734.6,531.2c-5.1,0-9.2,4.1-9.2,9.2c0,5.1,4.1,9.2,9.2,9.2
		c5.1,0,9.2-4.1,9.2-9.2C743.8,535.3,739.7,531.2,734.6,531.2L734.6,531.2z M683.3,553.5c-5.1,0-9.2,4.1-9.2,9.2
		c0,5.1,4.1,9.2,9.2,9.2c5.1,0,9.2-4.1,9.2-9.2C692.5,557.6,688.4,553.5,683.3,553.5L683.3,553.5z M651.1,437.3
		c-11.2,0-20.3,9.1-20.3,20.3c0,11.2,9.1,20.3,20.3,20.3c11.2,0,20.3-9.1,20.3-20.3C671.4,446.4,662.3,437.3,651.1,437.3
		L651.1,437.3z M688.2,409.3c-5.1,0-9.2,4.1-9.2,9.2c0,5.1,4.1,9.2,9.2,9.2c5.1,0,9.2-4.1,9.2-9.2
		C697.4,413.4,693.3,409.3,688.2,409.3L688.2,409.3z M630.3,359.4c-5.1,0-9.2,4.1-9.2,9.2c0,5.1,4.1,9.2,9.2,9.2
		c5.1,0,9.2-4.1,9.2-9.2C639.5,363.6,635.4,359.4,630.3,359.4L630.3,359.4z M671.9,319.2c-5.1,0-9.2,4.1-9.2,9.2
		c0,5.1,4.1,9.2,9.2,9.2c5.1,0,9.2-4.1,9.2-9.2C681.1,323.3,677,319.2,671.9,319.2L671.9,319.2z M762.2,378.2
		c-5.1,0-9.2,4.1-9.2,9.2c0,5.1,4.1,9.2,9.2,9.2c5.1,0,9.2-4.1,9.2-9.2C771.5,382.3,767.3,378.2,762.2,378.2z"/>
</g>
</svg>
