<?xml version="1.0" encoding="utf-8"?>
<!-- Generator: Adobe Illustrator 19.0.0, SVG Export Plug-In . SVG Version: 6.00 Build 0)  -->
<svg version="1.1" id="Layer_1" xmlns="http://www.w3.org/2000/svg" xmlns:xlink="http://www.w3.org/1999/xlink" x="0px" y="0px"
	 viewBox="0 0 1200 1200" style="enable-background:new 0 0 1200 1200;" xml:space="preserve">
<style type="text/css">
	.st0{fill:url(#SVGID_1_);}
	.st1{fill:url(#SVGID_2_);}
	.st2{fill:url(#SVGID_3_);}
	.st3{fill:url(#SVGID_4_);}
	.st4{fill:url(#SVGID_5_);}
	.st5{fill:url(#SVGID_6_);}
	.st6{fill:url(#SVGID_7_);}
	.st7{fill:url(#SVGID_8_);}
	.st8{fill:url(#SVGID_9_);}
	.st9{fill:url(#SVGID_10_);}
	.st10{fill:url(#SVGID_11_);}
	
</style>
<g filter="url(#water)">
	<linearGradient id="SVGID_1_" gradientUnits="userSpaceOnUse" x1="635.827" y1="382.8386" x2="489.5373" y2="310.8104">
		<stop  offset="0" style="stop-color:#032642"/>
		<stop  offset="0.1454" style="stop-color:#032A49"/>
		<stop  offset="0.3533" style="stop-color:#02365C"/>
		<stop  offset="0.5986" style="stop-color:#02497A"/>
		<stop  offset="0.8704" style="stop-color:#0163A5"/>
		<stop  offset="1" style="stop-color:#0071BC"/>
	</linearGradient>
	<path class="st0" d="M461.5,318.4c-13,11.8-23.5,37.7,32.2,54c20.1,5.9,28.9,11.3,30.1,24.7c52.6,7,95.6-7.4,103.4-43.8
		C641.6,286.8,544.2,259.2,461.5,318.4z"/>
	<linearGradient id="SVGID_2_" gradientUnits="userSpaceOnUse" x1="883.6991" y1="956.2603" x2="336.7817" y2="686.9763">
		<stop  offset="0" style="stop-color:#032642"/>
		<stop  offset="0.1454" style="stop-color:#032A49"/>
		<stop  offset="0.3533" style="stop-color:#02365C"/>
		<stop  offset="0.5986" style="stop-color:#02497A"/>
		<stop  offset="0.8704" style="stop-color:#0163A5"/>
		<stop  offset="1" style="stop-color:#0071BC"/>
	</linearGradient>
	<path class="st1" d="M361,758.9c2.2-3.5,4.7-7,7.5-10.4c14.9-18.1,39.2-28.9,69.1-32.9c0.4,5.9,0.1,11.7-0.7,17.3
		c6-40.7-19.6-95.1-76.2-77.9c-15.7,4.8-34.3,25.2-22.2,65.1c7,23.3,20.5,40.9,36.6,49C370.1,766.6,365.4,763.1,361,758.9z"/>
	<linearGradient id="SVGID_3_" gradientUnits="userSpaceOnUse" x1="848.3316" y1="1003.8486" x2="400.356" y2="783.2803">
		<stop  offset="0" style="stop-color:#032642"/>
		<stop  offset="0.1454" style="stop-color:#032A49"/>
		<stop  offset="0.3533" style="stop-color:#02365C"/>
		<stop  offset="0.5986" style="stop-color:#02497A"/>
		<stop  offset="0.8704" style="stop-color:#0163A5"/>
		<stop  offset="1" style="stop-color:#0071BC"/>
	</linearGradient>
	<path class="st2" d="M688,846.3c-43,32.6-92,58.2-145.1,65.2c56.9,76.4,157.3,82.1,201.3,42.5c24.5-22,21.4-52.6-23.1-86.4
		C709.6,858.9,684.8,844.5,688,846.3z"/>
	<linearGradient id="SVGID_4_" gradientUnits="userSpaceOnUse" x1="560.33" y1="989.6942" x2="330.0027" y2="876.2886">
		<stop  offset="0" style="stop-color:#032642"/>
		<stop  offset="0.1454" style="stop-color:#032A49"/>
		<stop  offset="0.3533" style="stop-color:#02365C"/>
		<stop  offset="0.5986" style="stop-color:#02497A"/>
		<stop  offset="0.8704" style="stop-color:#0163A5"/>
		<stop  offset="1" style="stop-color:#0071BC"/>
	</linearGradient>
	<path class="st3" d="M453,904.6c-13-3.8-24.9-8.6-35.6-13.9c-30.6-14.9-57-41.7-65.3-72.1c-40.5-2.4-61.1,34.6-55.3,62.2
		c29.8,73.9,115.8,121,224.2,120.2C488.2,966.9,448.9,898,453,904.6z"/>
	<linearGradient id="SVGID_5_" gradientUnits="userSpaceOnUse" x1="955.6111" y1="809.8481" x2="409.537" y2="540.9794">
		<stop  offset="0" style="stop-color:#032642"/>
		<stop  offset="0.1454" style="stop-color:#032A49"/>
		<stop  offset="0.3533" style="stop-color:#02365C"/>
		<stop  offset="0.5986" style="stop-color:#02497A"/>
		<stop  offset="0.8704" style="stop-color:#0163A5"/>
		<stop  offset="1" style="stop-color:#0071BC"/>
	</linearGradient>
	<path class="st4" d="M911.5,604.5c-61.5-62.6-130.7,37.3-263.7,43.9c-76.7,3.8-113.8-63.2-95.7-124.5
		c-129-14.7-212-57.4-270.4,71.2c-7.3,20.9-12.9,42.1-16.9,63.3c3.3-7.4,46.4-97.8,151.8-74c61.2,13.8,116.1,87,187.1,141.5
		c54.3-4.2,102.9-21.1,102.9-21.1c47.8-6.7,70.1,30,37.3,81.2c-3.3-0.3,42.2,1.2,71.5-5.4c91.6-20.8,114.3-70.1,119.3-101.3
		C936.5,668.4,936,629.5,911.5,604.5z"/>
	<linearGradient id="SVGID_6_" gradientUnits="userSpaceOnUse" x1="483.6324" y1="377.3608" x2="1036.0532" y2="463.9346">
		<stop  offset="0" style="stop-color:#00BFFF"/>
		<stop  offset="0.1891" style="stop-color:#05B6F7"/>
		<stop  offset="0.5146" style="stop-color:#0AADEF"/>
		<stop  offset="1" style="stop-color:#0CAAED"/>
	</linearGradient>
	<path class="st5" d="M745.5,324.2c-56.6-75.4-103.6-137.7-127.4-169.3c-8.5-11.3-25.4-11.2-33.9,0L456.4,322.7
		c34.2-31.7,93.7-44.9,132.2-31.8c30.4,10.4,44.7,34.2,38.6,62.4c-9.4,43.5-68.8,55.5-134.9,37.4c-65.9-18.1-95.9,11.3-111.1,30.1
		c-12.8,15.8-21.8,31.1-29.8,42c-30,41.5-53.7,86.4-69.7,132.5c71.7-158.3,180.7-57.4,366.7-68.1
		C835.9,516.4,779.3,369.2,745.5,324.2z"/>
	<linearGradient id="SVGID_7_" gradientUnits="userSpaceOnUse" x1="462.0091" y1="510.0116" x2="1019.2675" y2="597.3435">
		<stop  offset="0" style="stop-color:#0CAAED"/>
		<stop  offset="0.1758" style="stop-color:#FFFFFF"/>
		<stop  offset="0.7939" style="stop-color:#0CAAED"/>
	</linearGradient>
	<path class="st6" d="M648.4,527.2c-181.8,10.5-290.1-85.7-361.8,57.7c-3.4,7.9-6.6,15.8-9.4,23.8c71.7-158.3,181.4-59.9,367.4-70.6
		c107.7-6.2,138.6-54.9,135.8-105.9C777.9,478.5,746.6,521.5,648.4,527.2z"/>
	<linearGradient id="SVGID_8_" gradientUnits="userSpaceOnUse" x1="357.231" y1="723.0073" x2="443.9827" y2="736.6028">
		<stop  offset="0.1091" style="stop-color:#0CAAED"/>
		<stop  offset="0.5212" style="stop-color:#FFFFFF"/>
		<stop  offset="1" style="stop-color:#0CAAED"/>
	</linearGradient>
	<path class="st7" d="M338.6,720.1c12.1,39.9,42.8,63.2,73.7,50.6c13.3-5.4,21.4-19,24.4-35.2c-4.2,10.1-11,18.2-20.5,22
		c-30.9,12.6-61.6-10.7-73.7-50.6c-3.9-12.8-4.6-23.5-3.2-32.5C334.1,685.2,332.6,700.2,338.6,720.1z"/>
	<linearGradient id="SVGID_9_" gradientUnits="userSpaceOnUse" x1="436.0844" y1="657.3838" x2="970.9109" y2="741.2002">
		<stop  offset="0.1091" style="stop-color:#0CAAED"/>
		<stop  offset="0.5212" style="stop-color:#FFFFFF"/>
		<stop  offset="1" style="stop-color:#0CAAED"/>
	</linearGradient>
	<path class="st8" d="M416.7,584.3c109.9,24.8,199.4,241.4,398.8,196.2c85.1-19.3,110.7-63.2,117.5-94.1
		c-10.9,29.2-40,64.3-113.6,81c-199.4,45.3-283.6-167.2-393.5-192c-106.4-24-154.5,64-157.2,70.1c-0.5,2.7-0.9,5.3-1.3,8
		C278,633,322.4,563,416.7,584.3z"/>
	<linearGradient id="SVGID_10_" gradientUnits="userSpaceOnUse" x1="575.5056" y1="901.4086" x2="775.9541" y2="932.8223">
		<stop  offset="0.1091" style="stop-color:#0CAAED"/>
		<stop  offset="0.5212" style="stop-color:#FFFFFF"/>
		<stop  offset="1" style="stop-color:#0CAAED"/>
	</linearGradient>
	<path class="st9" d="M585.6,951.7c52.6,35.8,123.7,33.8,158.7,2.3c9-8,14.2-17.3,15.1-27.3c-2.6,5-6.3,9.8-11.2,14.2
		c-35,31.5-106.1,33.5-158.7-2.3c-43.4-29.5-70.1-73.5-64.4-108.5C508.8,866.5,536.5,918.4,585.6,951.7z"/>
	<linearGradient id="SVGID_11_" gradientUnits="userSpaceOnUse" x1="417.6673" y1="797.9973" x2="969.9283" y2="884.5461">
		<stop  offset="0" style="stop-color:#00BFFF"/>
		<stop  offset="0.1891" style="stop-color:#05B6F7"/>
		<stop  offset="0.5146" style="stop-color:#0AADEF"/>
		<stop  offset="1" style="stop-color:#0CAAED"/>
	</linearGradient>
	<path class="st10" d="M934.3,656c3,16.8,4.5,96.4-118.8,124.4c-199.4,45.3-288.9-171.4-398.8-196.2
		c-106.3-24-149.2,68.2-151.9,74.2C238.7,798,298.4,887.3,297.3,883c-9-33.5,22.7-83.3,82.8-57.3c95.9,41.5,108.9,277,322.3,218.5
		C843.9,1001.6,975.1,861.6,934.3,656z M412.2,770.7c-30.9,12.6-61.6-10.7-73.7-50.6c-12.1-39.9,6.5-60.3,22.2-65.1
		C441.6,630.4,459.2,751.6,412.2,770.7z M744.3,954c-35,31.5-106.1,33.5-158.7-2.3c-52.6-35.8-80.7-92.9-56.3-129.4
		c26.5-39.6,94.6-6.3,110.1,0.3C758,873.4,779.3,922.6,744.3,954z"/>
	<defs>
		<filter id="Adobe_OpacityMaskFilter" filterUnits="userSpaceOnUse" x="281.7" y="146.5" width="499" height="448.7">
			<feFlood  style="flood-color:white;flood-opacity:1" result="back"/>
			<feBlend  in="SourceGraphic" in2="back" mode="normal"/>
		</filter>
	</defs>
	<mask maskUnits="userSpaceOnUse" x="281.7" y="146.5" width="499" height="448.7" id="SVGID_12_">
		<g class="st11">
			<defs>
				<filter id="Adobe_OpacityMaskFilter_1_" filterUnits="userSpaceOnUse" x="281.7" y="146.5" width="499" height="448.7">
					<feFlood  style="flood-color:white;flood-opacity:1" result="back"/>
					<feBlend  in="SourceGraphic" in2="back" mode="normal"/>
				</filter>
			</defs>
			<mask maskUnits="userSpaceOnUse" x="281.7" y="146.5" width="499" height="448.7" id="SVGID_12_">
				<g class="st12">
				</g>
			</mask>
			<radialGradient id="SVGID_13_" cx="429.0644" cy="542.4539" r="406.5606" gradientUnits="userSpaceOnUse">
				<stop  offset="0" style="stop-color:#FFFFFF"/>
				<stop  offset="2.216419e-002" style="stop-color:#F7F7F7"/>
				<stop  offset="0.2346" style="stop-color:#ADADAD"/>
				<stop  offset="0.4341" style="stop-color:#6F6F6F"/>
				<stop  offset="0.6147" style="stop-color:#3F3F3F"/>
				<stop  offset="0.7729" style="stop-color:#1D1D1D"/>
				<stop  offset="0.9027" style="stop-color:#080808"/>
				<stop  offset="0.9879" style="stop-color:#000000"/>
			</radialGradient>
			<path class="st13" d="M745.5,324.2c-56.6-75.4-103.6-137.7-127.4-169.3c-8.5-11.3-25.4-11.2-33.9,0L456.4,322.7
				c34.2-31.7,93.7-44.9,132.2-31.8c30.4,10.4,44.7,34.2,38.6,62.4c-9.4,43.5-68.8,55.5-134.9,37.4c-65.9-18.1-95.9,11.3-111.1,30.1
				c-12.8,15.8-21.8,31.1-29.8,42c-30,41.5-53.7,86.4-69.7,132.5c71.7-158.3,180.7-57.4,366.7-68.1
				C835.9,516.4,779.3,369.2,745.5,324.2z"/>
		</g>
	</mask>
	<radialGradient id="SVGID_14_" cx="429.0644" cy="542.4539" r="406.5606" gradientUnits="userSpaceOnUse">
		<stop  offset="0" style="stop-color:#FFFFFF"/>
		<stop  offset="0.9879" style="stop-color:#FFFFFF"/>
	</radialGradient>
	<path class="st14" d="M745.5,324.2c-56.6-75.4-103.6-137.7-127.4-169.3c-8.5-11.3-25.4-11.2-33.9,0L456.4,322.7
		c34.2-31.7,93.7-44.9,132.2-31.8c30.4,10.4,44.7,34.2,38.6,62.4c-9.4,43.5-68.8,55.5-134.9,37.4c-65.9-18.1-95.9,11.3-111.1,30.1
		c-12.8,15.8-21.8,31.1-29.8,42c-30,41.5-53.7,86.4-69.7,132.5c71.7-158.3,180.7-57.4,366.7-68.1
		C835.9,516.4,779.3,369.2,745.5,324.2z"/>
	<defs>
		<filter id="Adobe_OpacityMaskFilter_2_" filterUnits="userSpaceOnUse" x="258.2" y="580.3" width="683.7" height="473.2">
			<feFlood  style="flood-color:white;flood-opacity:1" result="back"/>
			<feBlend  in="SourceGraphic" in2="back" mode="normal"/>
		</filter>
	</defs>
	<mask maskUnits="userSpaceOnUse" x="258.2" y="580.3" width="683.7" height="473.2" id="SVGID_15_">
		<g class="st15">
			<defs>
				<filter id="Adobe_OpacityMaskFilter_3_" filterUnits="userSpaceOnUse" x="258.2" y="580.3" width="683.7" height="473.2">
					<feFlood  style="flood-color:white;flood-opacity:1" result="back"/>
					<feBlend  in="SourceGraphic" in2="back" mode="normal"/>
				</filter>
			</defs>
			<mask maskUnits="userSpaceOnUse" x="258.2" y="580.3" width="683.7" height="473.2" id="SVGID_15_">
				<g class="st16">
				</g>
			</mask>
			<radialGradient id="SVGID_16_" cx="429.0654" cy="542.452" r="406.563" gradientUnits="userSpaceOnUse">
				<stop  offset="0" style="stop-color:#FFFFFF"/>
				<stop  offset="2.216419e-002" style="stop-color:#F7F7F7"/>
				<stop  offset="0.2346" style="stop-color:#ADADAD"/>
				<stop  offset="0.4341" style="stop-color:#6F6F6F"/>
				<stop  offset="0.6147" style="stop-color:#3F3F3F"/>
				<stop  offset="0.7729" style="stop-color:#1D1D1D"/>
				<stop  offset="0.9027" style="stop-color:#080808"/>
				<stop  offset="0.9879" style="stop-color:#000000"/>
			</radialGradient>
			<path class="st17" d="M934.3,656c3,16.8,4.5,96.4-118.8,124.4c-199.4,45.3-288.9-171.4-398.8-196.2
				c-106.3-24-149.2,68.2-151.9,74.2C238.7,798,298.4,887.3,297.3,883c-9-33.5,22.7-83.3,82.8-57.3c95.9,41.5,108.9,277,322.3,218.5
				C843.9,1001.6,975.1,861.6,934.3,656z M412.2,770.7c-30.9,12.6-61.6-10.7-73.7-50.6c-12.1-39.9,6.5-60.3,22.2-65.1
				C441.6,630.4,459.2,751.6,412.2,770.7z M744.3,954c-35,31.5-106.1,33.5-158.7-2.3c-52.6-35.8-80.7-92.9-56.3-129.4
				c26.5-39.6,94.6-6.3,110.1,0.3C758,873.4,779.3,922.6,744.3,954z"/>
		</g>
	</mask>
	<radialGradient id="SVGID_17_" cx="429.0654" cy="542.452" r="406.563" gradientUnits="userSpaceOnUse">
		<stop  offset="0" style="stop-color:#FFFFFF"/>
		<stop  offset="0.9879" style="stop-color:#FFFFFF"/>
	</radialGradient>
	<path class="st18" d="M934.3,656c3,16.8,4.5,96.4-118.8,124.4c-199.4,45.3-288.9-171.4-398.8-196.2
		c-106.3-24-149.2,68.2-151.9,74.2C238.7,798,298.4,887.3,297.3,883c-9-33.5,22.7-83.3,82.8-57.3c95.9,41.5,108.9,277,322.3,218.5
		C843.9,1001.6,975.1,861.6,934.3,656z M412.2,770.7c-30.9,12.6-61.6-10.7-73.7-50.6c-12.1-39.9,6.5-60.3,22.2-65.1
		C441.6,630.4,459.2,751.6,412.2,770.7z M744.3,954c-35,31.5-106.1,33.5-158.7-2.3c-52.6-35.8-80.7-92.9-56.3-129.4
		c26.5-39.6,94.6-6.3,110.1,0.3C758,873.4,779.3,922.6,744.3,954z"/>
	<linearGradient id="SVGID_18_" gradientUnits="userSpaceOnUse" x1="295.7968" y1="866.3517" x2="459.0273" y2="866.3517">
		<stop  offset="0" style="stop-color:#0CAAED"/>
		<stop  offset="0.5394" style="stop-color:#0071BC"/>
		<stop  offset="1" style="stop-color:#0CAAED"/>
	</linearGradient>
	<path class="st19" d="M380,825.7c-60.4-26.2-92.1,24.4-82.6,57.9c3,6,6.1,11.9,9.4,17.8c-16.4-32.7,15.3-92.7,80-64.7
		c29,12.6,50.5,42.9,72.2,77.5C434.9,875.2,412.1,839.6,380,825.7z"/>
	<linearGradient id="SVGID_19_" gradientUnits="userSpaceOnUse" x1="517.4228" y1="316.1351" x2="726.2172" y2="348.8568">
		<stop  offset="0.1091" style="stop-color:#0CAAED"/>
		<stop  offset="0.5212" style="stop-color:#FFFFFF"/>
		<stop  offset="1" style="stop-color:#0CAAED"/>
	</linearGradient>
	<path class="st20" d="M628.1,347.7c6.6-53.2-61.9-79.3-131.9-50c-48.6,20.3-46.7,37.5-44.4,46.1c5.7-31.3,68.7-52.4,117.9-45.4
		C601.3,302.8,627.7,321.1,628.1,347.7z"/>
</g>
</svg>
