<?xml version="1.0" encoding="utf-8"?>
<!-- Generator: Adobe Illustrator 19.0.0, SVG Export Plug-In . SVG Version: 6.00 Build 0)  -->
<svg version="1.1" id="Layer_1" xmlns="http://www.w3.org/2000/svg" xmlns:xlink="http://www.w3.org/1999/xlink" x="0px" y="0px"
	 viewBox="0 0 1200 1200" style="enable-background:new 0 0 1200 1200;" xml:space="preserve">
<style type="text/css">
	.st0{fill-rule:evenodd;clip-rule:evenodd;fill:url(#SVGID_1_);}
	.st1{fill-rule:evenodd;clip-rule:evenodd;fill:#FEFEFE;}
	.st2{fill-rule:evenodd;clip-rule:evenodd;fill:url(#SVGID_2_);}
	.st3{fill-rule:evenodd;clip-rule:evenodd;fill:url(#SVGID_3_);}
	.st4{fill-rule:evenodd;clip-rule:evenodd;fill:url(#SVGID_4_);}
	.st5{fill-rule:evenodd;clip-rule:evenodd;fill:url(#SVGID_5_);}
	.st6{fill-rule:evenodd;clip-rule:evenodd;fill:url(#SVGID_6_);}
</style>
<g>
	<radialGradient id="SVGID_1_" cx="600" cy="600" r="390.6933" gradientUnits="userSpaceOnUse">
		<stop  offset="0" style="stop-color:#FFFFFF"/>
		<stop  offset="1" style="stop-color:#00AEEF"/>
	</radialGradient>
	<path class="st0" d="M317.9,795.1c0-204.6,243.4-426.2,282.1-670.2c38.7,243.9,282.1,465.6,282.1,670.2
		C882.1,1168.4,317.9,1168.4,317.9,795.1z"/>
	<path class="st1" d="M600,221.3c-21.9,63.6-53.6,124.4-86.3,182.1c-38.9,68.6-81.9,135.7-117.2,206.1
		c-28.3,56.4-54.8,121.6-54.8,185.6c0,95.5,40.6,178.3,126.4,224.1c40.3,21.5,86.3,32,131.9,32c45.6,0,91.5-10.5,131.9-32
		c85.8-45.7,126.4-128.6,126.4-224.1c0-64-26.5-129.2-54.8-185.6c-35.3-70.4-78.3-137.6-117.2-206.1
		C653.6,345.7,621.9,284.9,600,221.3z"/>
	<radialGradient id="SVGID_2_" cx="532.3065" cy="453.1837" r="100.2952" gradientUnits="userSpaceOnUse">
		<stop  offset="0" style="stop-color:#FFFFFF"/>
		<stop  offset="1" style="stop-color:#00AEEF"/>
	</radialGradient>
	<path class="st2" d="M600,306.3c-17.7,38.7-37.9,76.3-58.6,112.7c-31.1,54.9-65,108.9-95.3,164.4c43.6-30.4,96.6-48.3,153.9-48.3
		c57.2,0,110.2,17.9,153.9,48.3c-30.3-55.5-64.1-109.5-95.3-164.4C637.9,382.5,617.7,345,600,306.3z"/>
	<g>
		<radialGradient id="SVGID_3_" cx="450.3484" cy="856.29" r="105.7639" gradientUnits="userSpaceOnUse">
			<stop  offset="0" style="stop-color:#CAE1F5"/>
			<stop  offset="1" style="stop-color:#0077BE"/>
		</radialGradient>
		<path class="st3" d="M668.5,585.8c88,28.8,151.6,111.6,151.6,209.2c0,121.5-98.5,220.1-220.1,220.1
			c-121.5,0-220.1-98.5-220.1-220.1c0-81.2,44.5-146.1,108-170.3c111.7-42.6,238,41.3,210.7,173.3c-4.8-48.7-45.9-86.8-95.8-86.8
			c-53.2,0-96.3,43.1-96.3,96.3c0,34,17.6,63.8,44.2,81c62,40,148.8,11.2,193.7-51.3c26.3-36.6,37-87.3,22.9-136.1
			C752.4,649.8,710,611.8,668.5,585.8z"/>
		<radialGradient id="SVGID_4_" cx="608.9167" cy="959.1655" r="158.5056" gradientUnits="userSpaceOnUse">
			<stop  offset="0" style="stop-color:#293C65"/>
			<stop  offset="1" style="stop-color:#00AEEF"/>
		</radialGradient>
		<path class="st4" d="M668.5,585.8c88,28.8,151.6,111.6,151.6,209.2c0,60.4-24.3,115-63.7,154.8c-85.2,63.6-226.4,18.3-238-95.6
			c7.7,14,18.8,25.8,32.2,34.4c62,40,148.8,11.2,193.7-51.3c26.3-36.6,37-87.3,22.9-136.1C752.4,649.8,710,611.8,668.5,585.8z"/>
		<radialGradient id="SVGID_5_" cx="534.6934" cy="638.2263" r="286.4024" gradientUnits="userSpaceOnUse">
			<stop  offset="0" style="stop-color:#CAE1F5"/>
			<stop  offset="1" style="stop-color:#0077BE"/>
		</radialGradient>
		<path class="st5" d="M461,965.7c-49.5-40.4-81.1-101.8-81.1-170.6c0-81.2,44.5-146.1,108-170.3c111.7-42.6,238,41.3,210.7,173.3
			c-3.3-33.5-23.7-61.9-52.3-76.4c-35.5-21.8-85.2-25.6-123-13.7c-43.6,13.7-72.4,49.5-90.8,94.6C412.4,852.1,416.8,912.9,461,965.7
			z"/>
		<radialGradient id="SVGID_6_" cx="528.3234" cy="701.3899" r="298.3607" gradientUnits="userSpaceOnUse">
			<stop  offset="0" style="stop-color:#293C65"/>
			<stop  offset="1" style="stop-color:#00AEEF"/>
		</radialGradient>
		<path class="st6" d="M756.4,949.9c-39.9,40.3-95.2,65.2-156.4,65.2c-52.7,0-101.1-18.5-139-49.4c-44.2-52.8-48.6-113.5-28.5-163
			c18.4-45.2,47.2-80.9,90.8-94.6c37.7-11.9,87.5-8.1,123,13.7c-13.1-6.6-27.8-10.4-43.5-10.4c-53.2,0-96.3,43.1-96.3,96.3
			c0,16.9,4.4,32.8,12,46.6C530,968.2,671.2,1013.4,756.4,949.9z"/>
	</g>
</g>
</svg>
