<?xml version="1.0" encoding="utf-8"?>
<!-- Generator: Adobe Illustrator 19.0.0, SVG Export Plug-In . SVG Version: 6.00 Build 0)  -->
<svg version="1.1" id="Layer_1" xmlns="http://www.w3.org/2000/svg" xmlns:xlink="http://www.w3.org/1999/xlink" x="0px" y="0px"
	 viewBox="0 0 1200 1200" style="enable-background:new 0 0 1200 1200;" xml:space="preserve">
<style type="text/css">
	.st0{fill-rule:evenodd;clip-rule:evenodd;fill:url(#SVGID_1_);}
	.st1{fill-rule:evenodd;clip-rule:evenodd;fill:url(#SVGID_2_);}
	.st2{fill-rule:evenodd;clip-rule:evenodd;fill:url(#SVGID_3_);}
	.st3{fill-rule:evenodd;clip-rule:evenodd;fill:url(#SVGID_4_);}
	.st4{fill-rule:evenodd;clip-rule:evenodd;fill:#FEFEFE;}
	.st5{fill-rule:evenodd;clip-rule:evenodd;fill:#003399;}
	.st6{fill-rule:evenodd;clip-rule:evenodd;fill:#00A2E9;}
</style>
<g>
	<g>
		<radialGradient id="SVGID_1_" cx="448.1701" cy="798.4328" r="208.9186" gradientUnits="userSpaceOnUse">
			<stop  offset="0" style="stop-color:#FFFFFF"/>
			<stop  offset="1" style="stop-color:#00AEEF"/>
		</radialGradient>
		<path class="st0" d="M906.5,541.6c24.6,47.5,38.6,101.4,38.6,158.7c0,190.6-154.5,345.1-345.1,345.1S254.9,890.8,254.9,700.2
			c0-58.6,14.6-113.8,40.4-162.1c18.7-35,43.1-33.7,54.3-22.4c9.9,10,9.2,26.6-11,48.2c-17.5,18.7-40.1,31.8-51,54.6
			c-20.4,42.9-6.1,75.5,28.6,91.9s-14.3,28.6,12.3,63.3c26.5,34.7,59.2,10.2,65.3,59.2c6.1,49,53.1,53.1,83.7,18.4
			c30.6-34.7,61.3-38.8,75.5-2c18,46.3,64.8,51,85.3-0.5c3.9-9.8,16.4-22.6,33.6-21.2c13.2,1.1,27.1,11.1,34.5,30.6
			c8.3,21.7,37.6,25.1,55.6,16.1c20.1-10,30.2-36.2,52.3-59.7c32.7-34.7,93.9-30.6,114.3-104.1c16-57.5-0.5-100-25.1-123.6
			c-6.8-6.5-39.9-19.3-53.9-38.4c-9.9-13.5-6.3-24.7-1.7-31.6C858,502,888.1,506.1,906.5,541.6z"/>
		<linearGradient id="SVGID_2_" gradientUnits="userSpaceOnUse" x1="398.1081" y1="-171.2912" x2="1218.1733" y2="3686.8125">
			<stop  offset="0" style="stop-color:#00AEEF"/>
			<stop  offset="0.1702" style="stop-color:#39C0F3"/>
			<stop  offset="0.3969" style="stop-color:#7FD6F7"/>
			<stop  offset="0.6015" style="stop-color:#B6E8FA"/>
			<stop  offset="0.7765" style="stop-color:#DEF4FD"/>
			<stop  offset="0.9151" style="stop-color:#F6FCFE"/>
			<stop  offset="1" style="stop-color:#FFFFFF"/>
		</linearGradient>
		<path class="st1" d="M306.6,848.2c54.1,107.1,165.2,180.6,293.4,180.6c146.4,0,270.5-95.8,312.9-228.1
			c-11.1,10.3-22.8,22.8-31.5,36.7c-23.5,37.3-37.3,69-121.5,87c-84.2,17.9-98,17.9-96.6,38.7c1.4,20.7-63.5,67.7-198.8,5.5
			C384.2,931.7,334.1,882.3,306.6,848.2z"/>
	</g>
	<g>
		<radialGradient id="SVGID_3_" cx="520.4304" cy="522.0757" r="156.627" gradientUnits="userSpaceOnUse">
			<stop  offset="0" style="stop-color:#FFFFFF"/>
			<stop  offset="1" style="stop-color:#00AEEF"/>
		</radialGradient>
		<path class="st2" d="M422.4,625.5c0-127,151.1-264.6,175.1-416.1c24,151.4,175.1,289.1,175.1,416.1
			C772.6,857.3,422.4,857.3,422.4,625.5z"/>
		<radialGradient id="SVGID_4_" cx="835.851" cy="409.9893" r="222.7184" gradientUnits="userSpaceOnUse">
			<stop  offset="0" style="stop-color:#FFFFFF"/>
			<stop  offset="1" style="stop-color:#00AEEF"/>
		</radialGradient>
		<path class="st3" d="M594,227.7c1.4-6.1,2.6-12.2,3.5-18.3c24,151.4,175.1,289.1,175.1,416.1c0,151.3-149.2,203.8-252.9,157.6
			c7.8-1.7,15.5-3.8,23.3-6.4c172.1-56.5,135.2-243.4,88.5-371.2C609.5,345.1,598.9,279.8,594,227.7z"/>
		<path class="st4" d="M673,459.1c26.3,22.7,74.6,119.1,70,173c-4,47.5-62.1,49.5-46.5-7.9C706,589.1,698.4,511.6,673,459.1
			L673,459.1z M682.5,676.8c-13.9,0-25.2,11.3-25.2,25.2c0,13.9,11.3,25.2,25.2,25.2c13.9,0,25.2-11.3,25.2-25.2
			C707.7,688.1,696.4,676.8,682.5,676.8z"/>
	</g>
	<path class="st5" d="M364.8,451.1c3,1.8,6.8,0.8,8.5-2.2c1.8-3,0.8-6.8-2.2-8.5c-3-1.8-6.8-0.8-8.5,2.2
		C360.8,445.5,361.8,449.3,364.8,451.1L364.8,451.1z M815.3,559.9c3,1.8,6.8,0.8,8.6-2.2c1.8-3,0.8-6.8-2.2-8.6
		c-3-1.8-6.8-0.8-8.6,2.2C811.4,554.3,812.3,558.1,815.3,559.9L815.3,559.9z M671.8,322.4c3,1.8,6.8,0.8,8.5-2.2
		c1.8-3,0.8-6.8-2.2-8.6c-3-1.8-6.8-0.8-8.5,2.2C667.9,316.8,668.9,320.6,671.8,322.4L671.8,322.4z M643.3,192
		c3,1.8,6.8,0.8,8.6-2.2c1.8-3,0.8-6.8-2.2-8.5c-3-1.8-6.8-0.8-8.6,2.2C639.4,186.5,640.4,190.3,643.3,192L643.3,192z M827,496.6
		c3,1.8,6.8,0.8,8.6-2.2c1.8-3,0.8-6.8-2.2-8.5c-3-1.8-6.8-0.8-8.5,2.2C823,491,824,494.8,827,496.6L827,496.6z M732.2,351.7
		c6.5,3.9,15,1.7,18.8-4.8c3.9-6.5,1.7-15-4.8-18.8c-6.5-3.9-14.9-1.7-18.8,4.8C723.5,339.4,725.7,347.8,732.2,351.7L732.2,351.7z
		 M776.7,388.2c3,1.8,6.8,0.8,8.6-2.2c1.8-3,0.8-6.8-2.2-8.6c-3-1.8-6.8-0.8-8.6,2.2C772.8,382.6,773.7,386.4,776.7,388.2
		L776.7,388.2z M854.8,726.5c3,1.8,6.8,0.8,8.5-2.2c1.8-3,0.8-6.8-2.2-8.5c-3-1.8-6.8-0.8-8.6,2.2
		C850.8,720.9,851.8,724.7,854.8,726.5L854.8,726.5z M608.7,845.7c3,1.8,6.8,0.8,8.6-2.2c1.8-3,0.8-6.8-2.2-8.6
		c-3-1.8-6.8-0.8-8.6,2.2C604.8,840.1,605.7,843.9,608.7,845.7L608.7,845.7z M869.1,621.8c6.5,3.9,15,1.7,18.8-4.8
		c3.9-6.5,1.7-15-4.8-18.8c-6.5-3.9-15-1.7-18.8,4.8C860.4,609.5,862.6,618,869.1,621.8L869.1,621.8z M772,490.2
		c6.5,3.9,14.9,1.7,18.8-4.8c3.9-6.5,1.7-15-4.8-18.8c-6.5-3.9-15-1.7-18.8,4.8C763.3,477.9,765.5,486.3,772,490.2L772,490.2z
		 M318,689.9c5.6,3.3,12.9,1.5,16.2-4.2c3.3-5.6,1.5-12.9-4.2-16.3c-5.6-3.3-12.9-1.5-16.3,4.2C310.5,679.3,312.4,686.5,318,689.9
		L318,689.9z M420.2,760.5c3,1.8,6.8,0.8,8.5-2.2c1.8-3,0.8-6.8-2.2-8.6c-3-1.8-6.8-0.8-8.5,2.2C416.3,755,417.3,758.8,420.2,760.5
		L420.2,760.5z M361.8,574.5c3,1.8,6.8,0.8,8.5-2.2c1.8-3,0.8-6.8-2.2-8.5c-3-1.8-6.8-0.8-8.5,2.2
		C357.9,569,358.8,572.8,361.8,574.5L361.8,574.5z M498.4,235.9c3,1.8,6.8,0.8,8.5-2.2c1.8-3,0.8-6.8-2.2-8.6
		c-3-1.8-6.8-0.8-8.5,2.2C494.4,230.3,495.4,234.2,498.4,235.9L498.4,235.9z M506.7,329.8c3,1.8,6.8,0.8,8.5-2.2
		c1.8-3,0.8-6.8-2.2-8.5c-3-1.8-6.8-0.8-8.5,2.2C502.7,324.2,503.7,328.1,506.7,329.8L506.7,329.8z M446.9,266.4
		c3,1.8,6.8,0.8,8.6-2.2c1.8-3,0.8-6.8-2.2-8.6c-3-1.8-6.8-0.8-8.5,2.2C442.9,260.8,443.9,264.6,446.9,266.4L446.9,266.4z
		 M382.7,363.1c5.6,3.3,12.9,1.5,16.2-4.2c3.3-5.6,1.5-12.9-4.2-16.3c-5.6-3.3-12.9-1.5-16.3,4.2
		C375.2,352.5,377.1,359.7,382.7,363.1L382.7,363.1z M433.6,371.4c3,1.8,6.8,0.8,8.6-2.2c1.8-3,0.8-6.8-2.2-8.5
		c-3-1.8-6.8-0.8-8.6,2.2C429.7,365.8,430.7,369.7,433.6,371.4L433.6,371.4z M457.8,426.9c6.5,3.9,14.9,1.7,18.8-4.8
		c3.9-6.5,1.7-15-4.8-18.8c-6.5-3.9-14.9-1.7-18.8,4.8C449.1,414.6,451.3,423,457.8,426.9L457.8,426.9z M418.7,458.5
		c3,1.8,6.8,0.8,8.5-2.2c1.8-3,0.8-6.8-2.2-8.6c-3-1.8-6.8-0.8-8.5,2.2C414.7,452.9,415.7,456.7,418.7,458.5L418.7,458.5z
		 M435.2,507.5c3,1.8,6.8,0.8,8.5-2.2c1.8-3,0.8-6.8-2.2-8.6c-3-1.8-6.8-0.8-8.6,2.2C431.3,501.9,432.3,505.8,435.2,507.5z"/>
	<path class="st6" d="M517.3,190.1c9,5.3,20.7,2.3,26-6.7c5.3-9,2.3-20.7-6.7-26c-9-5.3-20.7-2.3-26,6.7
		C505.3,173.1,508.3,184.7,517.3,190.1L517.3,190.1z M783.5,425c6.5,3.9,15,1.7,18.8-4.8c3.9-6.5,1.7-15-4.8-18.8
		c-6.5-3.9-15-1.7-18.8,4.8C774.8,412.7,777,421.1,783.5,425L783.5,425z M368.9,392.6c3,1.8,6.8,0.8,8.5-2.2c1.8-3,0.8-6.8-2.2-8.5
		c-3-1.8-6.8-0.8-8.6,2.2C364.9,387,365.9,390.9,368.9,392.6L368.9,392.6z M396.2,433.4c12.2,7.2,27.9,3.2,35.1-9
		c7.2-12.2,3.2-27.9-9-35.1c-12.2-7.2-27.9-3.2-35.1,9C380,410.5,384.1,426.3,396.2,433.4L396.2,433.4z M853.8,471.3
		c10.4,6.1,23.8,2.7,29.9-7.7c6.1-10.4,2.7-23.8-7.7-29.9c-10.4-6.1-23.8-2.7-29.9,7.7C840,451.7,843.4,465.1,853.8,471.3
		L853.8,471.3z M471.3,376.1c3,1.8,6.8,0.8,8.5-2.2c1.8-3,0.8-6.8-2.2-8.5c-3-1.8-6.8-0.8-8.6,2.2
		C467.3,370.5,468.3,374.3,471.3,376.1L471.3,376.1z M397.1,516.6c3,1.8,6.8,0.8,8.6-2.2c1.8-3,0.8-6.8-2.2-8.6
		c-3-1.8-6.8-0.8-8.6,2.2C393.1,511.1,394.1,514.9,397.1,516.6L397.1,516.6z M383.6,487.4c6.5,3.9,15,1.7,18.8-4.8
		c3.9-6.5,1.7-15-4.8-18.8c-6.5-3.9-14.9-1.7-18.8,4.8C375,475.1,377.1,483.6,383.6,487.4L383.6,487.4z M827.5,700.1
		c9,5.3,20.5,2.3,25.8-6.6c5.3-9,2.3-20.5-6.6-25.8c-9-5.3-20.5-2.3-25.8,6.6C815.5,683.2,818.5,694.8,827.5,700.1L827.5,700.1z
		 M721.2,821.5c6.5,3.9,15,1.7,18.8-4.8c3.9-6.5,1.7-14.9-4.8-18.8c-6.5-3.9-15-1.7-18.8,4.8C712.5,809.2,714.7,817.7,721.2,821.5
		L721.2,821.5z M449.2,778.3c6.5,3.9,15,1.7,18.8-4.8c3.9-6.5,1.7-15-4.8-18.8c-6.5-3.9-14.9-1.7-18.8,4.8
		C440.5,766,442.7,774.4,449.2,778.3L449.2,778.3z M342.4,658.5c9.6,5.7,22,2.5,27.6-7.1c5.7-9.6,2.5-22-7.1-27.6
		c-9.6-5.7-22-2.5-27.6,7.1C329.7,640.5,332.8,652.9,342.4,658.5L342.4,658.5z M505,304.8c6.5,3.9,15,1.7,18.8-4.8
		c3.9-6.5,1.7-15-4.8-18.8c-6.5-3.9-14.9-1.7-18.8,4.8C496.3,292.6,498.5,301,505,304.8L505,304.8z M655.3,268.2
		c10.3,6.1,23.7,2.7,29.8-7.7c6.1-10.3,2.7-23.7-7.7-29.8c-10.3-6.1-23.7-2.7-29.8,7.7C641.5,248.8,645,262.1,655.3,268.2z"/>
	<path class="st4" d="M441,893.2c15.5-2.6,27.8-11.9,38.8-20.5c8.8-6.9,18-13.7,22.9-6.4c3.1,4.7,0.1,12.8-14.3,21.3
		c-12.3,7.2-29.2,13-46.6,11.3C424.7,897.2,424.2,896.1,441,893.2L441,893.2z M800,865.5c16.5-14.9,18.4-35.2,39.6-51.8
		c8.6-6.8,24.5-7.6,6.6,5.7c-14.7,10.9-21.2,38.8-45.7,50.7C785.9,877.2,791.9,872.9,800,865.5L800,865.5z M671.1,856.5
		c5.8,0,10.5,4.7,10.5,10.5c0,5.8-4.7,10.5-10.5,10.5c-5.8,0-10.5-4.7-10.5-10.5C660.7,861.2,665.4,856.5,671.1,856.5L671.1,856.5z
		 M521,848.2c5.8,0,10.5,4.7,10.5,10.5c0,5.8-4.7,10.5-10.5,10.5c-5.8,0-10.5-4.7-10.5-10.5C510.5,852.9,515.2,848.2,521,848.2z"/>
</g>
</svg>
